<mxfile host="app.diagrams.net" modified="2024-07-01T09:05:25.237Z" agent="Mozilla/5.0 (Windows NT 10.0; Win64; x64) AppleWebKit/537.36 (KHTML, like Gecko) Chrome/126.0.0.0 Safari/537.36" etag="MFZq3e4lbmsD2R0xtGSb" version="24.6.4" type="device">
  <diagram name="Page-1" id="e7e014a7-5840-1c2e-5031-d8a46d1fe8dd">
    <mxGraphModel dx="1434" dy="738" grid="1" gridSize="10" guides="1" tooltips="1" connect="1" arrows="1" fold="1" page="1" pageScale="1" pageWidth="1169" pageHeight="826" background="none" math="0" shadow="0">
      <root>
        <mxCell id="0" />
        <mxCell id="1" parent="0" />
        <mxCell id="2" value="Network Layer" style="swimlane;whiteSpace=wrap" parent="1" vertex="1">
          <mxGeometry x="70" y="140" width="300" height="1570" as="geometry" />
        </mxCell>
        <mxCell id="5" value="" style="ellipse;shape=startState;fillColor=#000000;strokeColor=#ff0000;" parent="2" vertex="1">
          <mxGeometry x="100" y="40" width="30" height="30" as="geometry" />
        </mxCell>
        <mxCell id="9" value="" style="endArrow=open;strokeColor=#000000;endFill=1;rounded=0;entryX=0.5;entryY=0;entryDx=0;entryDy=0;" parent="2" source="5" target="10" edge="1">
          <mxGeometry relative="1" as="geometry">
            <mxPoint x="115" y="160" as="sourcePoint" />
            <mxPoint x="115" y="212" as="targetPoint" />
          </mxGeometry>
        </mxCell>
        <mxCell id="88asuDBjDZvt005CNdE9-83" value="" style="edgeStyle=orthogonalEdgeStyle;rounded=0;orthogonalLoop=1;jettySize=auto;html=1;" edge="1" parent="2" source="10" target="88asuDBjDZvt005CNdE9-82">
          <mxGeometry relative="1" as="geometry" />
        </mxCell>
        <mxCell id="10" value="Service Disruption" style="" parent="2" vertex="1">
          <mxGeometry x="60" y="220" width="110" height="50" as="geometry" />
        </mxCell>
        <mxCell id="88asuDBjDZvt005CNdE9-108" style="edgeStyle=orthogonalEdgeStyle;rounded=0;orthogonalLoop=1;jettySize=auto;html=1;" edge="1" parent="2" source="88asuDBjDZvt005CNdE9-82" target="88asuDBjDZvt005CNdE9-107">
          <mxGeometry relative="1" as="geometry" />
        </mxCell>
        <mxCell id="88asuDBjDZvt005CNdE9-82" value="Service further downgrade" style="whiteSpace=wrap;html=1;" vertex="1" parent="2">
          <mxGeometry x="55" y="930" width="120" height="60" as="geometry" />
        </mxCell>
        <mxCell id="88asuDBjDZvt005CNdE9-124" value="" style="edgeStyle=orthogonalEdgeStyle;rounded=0;orthogonalLoop=1;jettySize=auto;html=1;" edge="1" parent="2" source="88asuDBjDZvt005CNdE9-107" target="88asuDBjDZvt005CNdE9-123">
          <mxGeometry relative="1" as="geometry" />
        </mxCell>
        <mxCell id="88asuDBjDZvt005CNdE9-107" value="Service restored" style="whiteSpace=wrap;html=1;" vertex="1" parent="2">
          <mxGeometry x="55" y="1280" width="120" height="60" as="geometry" />
        </mxCell>
        <mxCell id="88asuDBjDZvt005CNdE9-123" value="" style="ellipse;shape=endState;fillColor=#000000;strokeColor=#ff0000" vertex="1" parent="2">
          <mxGeometry x="100" y="1410" width="30" height="32" as="geometry" />
        </mxCell>
        <mxCell id="3" value="OSS" style="swimlane;whiteSpace=wrap" parent="1" vertex="1">
          <mxGeometry x="370" y="140" width="575" height="1570" as="geometry" />
        </mxCell>
        <mxCell id="13" value="" style="ellipse;shape=startState;fillColor=#000000;strokeColor=#ff0000;" parent="3" vertex="1">
          <mxGeometry x="120" y="42" width="30" height="30" as="geometry" />
        </mxCell>
        <mxCell id="14" value="" style="edgeStyle=elbowEdgeStyle;elbow=horizontal;verticalAlign=bottom;endArrow=open;endSize=8;strokeColor=#000000;endFill=1;rounded=0" parent="3" target="15" edge="1">
          <mxGeometry x="40" y="20" as="geometry">
            <mxPoint x="115" y="90" as="targetPoint" />
            <mxPoint x="135" y="70" as="sourcePoint" />
          </mxGeometry>
        </mxCell>
        <mxCell id="15" value="idle" style="" parent="3" vertex="1">
          <mxGeometry x="80" y="110" width="110" height="50" as="geometry" />
        </mxCell>
        <mxCell id="16" value="Create internal Ticket &#xa;against the &#xa;Network Element" style="" parent="3" vertex="1">
          <mxGeometry x="45" y="220" width="180" height="50" as="geometry" />
        </mxCell>
        <mxCell id="17" value="" style="endArrow=open;strokeColor=#000000;endFill=1;rounded=0" parent="3" source="15" target="16" edge="1">
          <mxGeometry relative="1" as="geometry" />
        </mxCell>
        <mxCell id="88asuDBjDZvt005CNdE9-62" value="" style="edgeStyle=orthogonalEdgeStyle;rounded=0;orthogonalLoop=1;jettySize=auto;html=1;" edge="1" parent="3" source="18" target="88asuDBjDZvt005CNdE9-61">
          <mxGeometry relative="1" as="geometry" />
        </mxCell>
        <mxCell id="18" value="Call Customer &#xa;Info Request." style="" parent="3" vertex="1">
          <mxGeometry x="80" y="322" width="110" height="50" as="geometry" />
        </mxCell>
        <mxCell id="19" value="" style="endArrow=open;strokeColor=#000000;endFill=1;rounded=0" parent="3" source="16" target="18" edge="1">
          <mxGeometry relative="1" as="geometry" />
        </mxCell>
        <mxCell id="88asuDBjDZvt005CNdE9-44" value="GET/customerInfo/{{NW}}" style="text;html=1;align=center;verticalAlign=middle;resizable=0;points=[];autosize=1;strokeColor=none;fillColor=none;fontFamily=Lucida Console;" vertex="1" parent="3">
          <mxGeometry x="262.5" y="300" width="190" height="30" as="geometry" />
        </mxCell>
        <mxCell id="88asuDBjDZvt005CNdE9-55" value="Customer , (NOC) Contact&amp;nbsp; &amp;amp;&amp;nbsp;&lt;div&gt;Asset Details&lt;/div&gt;" style="text;html=1;align=center;verticalAlign=middle;resizable=0;points=[];autosize=1;strokeColor=none;fillColor=none;fontFamily=Lucida Console;" vertex="1" parent="3">
          <mxGeometry x="242.5" y="362" width="230" height="40" as="geometry" />
        </mxCell>
        <mxCell id="88asuDBjDZvt005CNdE9-64" value="" style="edgeStyle=orthogonalEdgeStyle;rounded=0;orthogonalLoop=1;jettySize=auto;html=1;" edge="1" parent="3" source="88asuDBjDZvt005CNdE9-61" target="88asuDBjDZvt005CNdE9-63">
          <mxGeometry relative="1" as="geometry" />
        </mxCell>
        <mxCell id="88asuDBjDZvt005CNdE9-61" value="Update the internal Ticket with Customer and asset details." style="whiteSpace=wrap;html=1;" vertex="1" parent="3">
          <mxGeometry x="75" y="447" width="120" height="60" as="geometry" />
        </mxCell>
        <mxCell id="88asuDBjDZvt005CNdE9-78" value="" style="edgeStyle=orthogonalEdgeStyle;rounded=0;orthogonalLoop=1;jettySize=auto;html=1;" edge="1" parent="3" source="88asuDBjDZvt005CNdE9-63" target="88asuDBjDZvt005CNdE9-77">
          <mxGeometry relative="1" as="geometry" />
        </mxCell>
        <mxCell id="88asuDBjDZvt005CNdE9-63" value="Send Crate Ticket Request" style="whiteSpace=wrap;html=1;" vertex="1" parent="3">
          <mxGeometry x="75" y="570" width="120" height="60" as="geometry" />
        </mxCell>
        <mxCell id="88asuDBjDZvt005CNdE9-68" value="POST/troubleTicket" style="text;html=1;align=center;verticalAlign=middle;resizable=0;points=[];autosize=1;strokeColor=none;fillColor=none;fontFamily=Lucida Console;" vertex="1" parent="3">
          <mxGeometry x="240.5" y="560" width="150" height="30" as="geometry" />
        </mxCell>
        <mxCell id="88asuDBjDZvt005CNdE9-81" value="" style="edgeStyle=orthogonalEdgeStyle;rounded=0;orthogonalLoop=1;jettySize=auto;html=1;" edge="1" parent="3" source="88asuDBjDZvt005CNdE9-77" target="88asuDBjDZvt005CNdE9-80">
          <mxGeometry relative="1" as="geometry" />
        </mxCell>
        <mxCell id="88asuDBjDZvt005CNdE9-77" value="Save the SF Case Reference aginst&lt;div&gt;internal Ticket.&lt;/div&gt;&lt;div&gt;&lt;br&gt;&lt;/div&gt;" style="whiteSpace=wrap;html=1;" vertex="1" parent="3">
          <mxGeometry x="75" y="710" width="120" height="60" as="geometry" />
        </mxCell>
        <mxCell id="88asuDBjDZvt005CNdE9-76" value="SF Case Reference" style="text;html=1;align=center;verticalAlign=middle;resizable=0;points=[];autosize=1;strokeColor=none;fillColor=none;fontFamily=Lucida Console;" vertex="1" parent="3">
          <mxGeometry x="240.5" y="618" width="150" height="30" as="geometry" />
        </mxCell>
        <mxCell id="88asuDBjDZvt005CNdE9-92" value="" style="edgeStyle=orthogonalEdgeStyle;rounded=0;orthogonalLoop=1;jettySize=auto;html=1;" edge="1" parent="3" source="88asuDBjDZvt005CNdE9-80" target="88asuDBjDZvt005CNdE9-85">
          <mxGeometry relative="1" as="geometry" />
        </mxCell>
        <mxCell id="88asuDBjDZvt005CNdE9-80" value="Idle" style="whiteSpace=wrap;html=1;" vertex="1" parent="3">
          <mxGeometry x="95" y="829" width="80" height="31" as="geometry" />
        </mxCell>
        <mxCell id="88asuDBjDZvt005CNdE9-88" value="" style="edgeStyle=orthogonalEdgeStyle;rounded=0;orthogonalLoop=1;jettySize=auto;html=1;" edge="1" parent="3" source="88asuDBjDZvt005CNdE9-85" target="88asuDBjDZvt005CNdE9-87">
          <mxGeometry relative="1" as="geometry" />
        </mxCell>
        <mxCell id="88asuDBjDZvt005CNdE9-85" value="Update Internal Ticket&amp;nbsp;" style="whiteSpace=wrap;html=1;" vertex="1" parent="3">
          <mxGeometry x="75" y="930" width="120" height="60" as="geometry" />
        </mxCell>
        <mxCell id="88asuDBjDZvt005CNdE9-105" value="" style="edgeStyle=orthogonalEdgeStyle;rounded=0;orthogonalLoop=1;jettySize=auto;html=1;" edge="1" parent="3" source="88asuDBjDZvt005CNdE9-87" target="88asuDBjDZvt005CNdE9-104">
          <mxGeometry relative="1" as="geometry" />
        </mxCell>
        <mxCell id="88asuDBjDZvt005CNdE9-87" value="Send Update To Salesforce" style="whiteSpace=wrap;html=1;" vertex="1" parent="3">
          <mxGeometry x="75" y="1070" width="120" height="60" as="geometry" />
        </mxCell>
        <mxCell id="88asuDBjDZvt005CNdE9-91" value="PATCH /troubleTicket/{{CaseReference}}&lt;span style=&quot;white-space-collapse: preserve;&quot;&gt;&#x9;&lt;/span&gt;" style="text;html=1;align=center;verticalAlign=middle;resizable=0;points=[];autosize=1;strokeColor=none;fillColor=default;fontFamily=Lucida Console;" vertex="1" parent="3">
          <mxGeometry x="207.5" y="1060" width="310" height="30" as="geometry" />
        </mxCell>
        <mxCell id="88asuDBjDZvt005CNdE9-111" style="edgeStyle=orthogonalEdgeStyle;rounded=0;orthogonalLoop=1;jettySize=auto;html=1;exitX=0.5;exitY=1;exitDx=0;exitDy=0;entryX=0.5;entryY=0;entryDx=0;entryDy=0;" edge="1" parent="3" source="88asuDBjDZvt005CNdE9-104" target="88asuDBjDZvt005CNdE9-109">
          <mxGeometry relative="1" as="geometry" />
        </mxCell>
        <mxCell id="88asuDBjDZvt005CNdE9-104" value="Idle" style="whiteSpace=wrap;html=1;" vertex="1" parent="3">
          <mxGeometry x="95" y="1170" width="80" height="31" as="geometry" />
        </mxCell>
        <mxCell id="88asuDBjDZvt005CNdE9-122" value="" style="edgeStyle=orthogonalEdgeStyle;rounded=0;orthogonalLoop=1;jettySize=auto;html=1;" edge="1" parent="3" source="88asuDBjDZvt005CNdE9-109" target="88asuDBjDZvt005CNdE9-121">
          <mxGeometry relative="1" as="geometry" />
        </mxCell>
        <mxCell id="88asuDBjDZvt005CNdE9-109" value="Update internal&amp;nbsp;&lt;div&gt;Ticket&lt;/div&gt;" style="whiteSpace=wrap;html=1;" vertex="1" parent="3">
          <mxGeometry x="75" y="1280" width="120" height="60" as="geometry" />
        </mxCell>
        <mxCell id="88asuDBjDZvt005CNdE9-114" value="POST /troubleTicket/{{CaseReference}}/close" style="text;html=1;align=center;verticalAlign=middle;resizable=0;points=[];autosize=1;strokeColor=none;fillColor=default;fontFamily=Lucida Console;" vertex="1" parent="3">
          <mxGeometry x="212.5" y="1270" width="330" height="30" as="geometry" />
        </mxCell>
        <mxCell id="88asuDBjDZvt005CNdE9-117" value="200 (Acknowledge)" style="text;html=1;align=center;verticalAlign=middle;resizable=0;points=[];autosize=1;strokeColor=none;fillColor=none;fontFamily=Lucida Console;" vertex="1" parent="3">
          <mxGeometry x="230.5" y="1120" width="150" height="30" as="geometry" />
        </mxCell>
        <mxCell id="88asuDBjDZvt005CNdE9-121" value="" style="ellipse;shape=endState;fillColor=#000000;strokeColor=#ff0000" vertex="1" parent="3">
          <mxGeometry x="120" y="1410" width="30" height="32" as="geometry" />
        </mxCell>
        <mxCell id="4" value="SF" style="swimlane;whiteSpace=wrap" parent="1" vertex="1">
          <mxGeometry x="945" y="140" width="590" height="1570" as="geometry" />
        </mxCell>
        <mxCell id="88asuDBjDZvt005CNdE9-71" value="" style="edgeStyle=orthogonalEdgeStyle;rounded=0;orthogonalLoop=1;jettySize=auto;html=1;" edge="1" parent="4" source="33" target="88asuDBjDZvt005CNdE9-70">
          <mxGeometry relative="1" as="geometry" />
        </mxCell>
        <mxCell id="33" value="SF, returns customer&#xa;info" style="" parent="4" vertex="1">
          <mxGeometry x="80" y="322" width="130" height="50" as="geometry" />
        </mxCell>
        <mxCell id="88asuDBjDZvt005CNdE9-45" value="Check Network details against asset&amp;nbsp;&lt;div&gt;&lt;br&gt;&lt;/div&gt;&lt;div&gt;&lt;div&gt;Get Customer +&lt;/div&gt;&amp;nbsp;NOC Contact&lt;br&gt;&lt;/div&gt;" style="shape=process;whiteSpace=wrap;html=1;backgroundOutline=1;" vertex="1" parent="4">
          <mxGeometry x="310" y="305.5" width="250" height="83" as="geometry" />
        </mxCell>
        <mxCell id="88asuDBjDZvt005CNdE9-51" value="" style="ellipse;shape=endState;fillColor=#000000;strokeColor=#ff0000" vertex="1" parent="4">
          <mxGeometry x="329" y="100" width="30" height="32" as="geometry" />
        </mxCell>
        <mxCell id="88asuDBjDZvt005CNdE9-57" style="edgeStyle=orthogonalEdgeStyle;rounded=0;orthogonalLoop=1;jettySize=auto;html=1;exitX=0.5;exitY=1;exitDx=0;exitDy=0;" edge="1" parent="4" source="88asuDBjDZvt005CNdE9-58" target="33">
          <mxGeometry relative="1" as="geometry" />
        </mxCell>
        <mxCell id="88asuDBjDZvt005CNdE9-59" style="edgeStyle=orthogonalEdgeStyle;rounded=0;orthogonalLoop=1;jettySize=auto;html=1;entryX=0.5;entryY=0;entryDx=0;entryDy=0;" edge="1" parent="4" source="88asuDBjDZvt005CNdE9-56" target="88asuDBjDZvt005CNdE9-58">
          <mxGeometry relative="1" as="geometry" />
        </mxCell>
        <mxCell id="88asuDBjDZvt005CNdE9-56" value="" style="ellipse;shape=startState;fillColor=#000000;strokeColor=#ff0000;" vertex="1" parent="4">
          <mxGeometry x="130" y="50" width="30" height="30" as="geometry" />
        </mxCell>
        <mxCell id="88asuDBjDZvt005CNdE9-58" value="idle" style="" vertex="1" parent="4">
          <mxGeometry x="90" y="130" width="110" height="50" as="geometry" />
        </mxCell>
        <mxCell id="88asuDBjDZvt005CNdE9-60" value="" style="endArrow=classic;startArrow=classic;html=1;rounded=0;exitX=1;exitY=0.5;exitDx=0;exitDy=0;" edge="1" parent="4" source="33" target="88asuDBjDZvt005CNdE9-45">
          <mxGeometry width="50" height="50" relative="1" as="geometry">
            <mxPoint x="230" y="330" as="sourcePoint" />
            <mxPoint x="280" y="280" as="targetPoint" />
          </mxGeometry>
        </mxCell>
        <mxCell id="88asuDBjDZvt005CNdE9-94" value="" style="edgeStyle=orthogonalEdgeStyle;rounded=0;orthogonalLoop=1;jettySize=auto;html=1;" edge="1" parent="4" source="88asuDBjDZvt005CNdE9-65" target="88asuDBjDZvt005CNdE9-93">
          <mxGeometry relative="1" as="geometry" />
        </mxCell>
        <mxCell id="88asuDBjDZvt005CNdE9-65" value="Create Case, tied to the (NOC) contact and Customer Details." style="whiteSpace=wrap;html=1;" vertex="1" parent="4">
          <mxGeometry x="60" y="570" width="170" height="60" as="geometry" />
        </mxCell>
        <mxCell id="88asuDBjDZvt005CNdE9-73" style="edgeStyle=orthogonalEdgeStyle;rounded=0;orthogonalLoop=1;jettySize=auto;html=1;" edge="1" parent="4" source="88asuDBjDZvt005CNdE9-70" target="88asuDBjDZvt005CNdE9-65">
          <mxGeometry relative="1" as="geometry" />
        </mxCell>
        <mxCell id="88asuDBjDZvt005CNdE9-70" value="&lt;span style=&quot;text-wrap: nowrap;&quot;&gt;idle&lt;/span&gt;" style="whiteSpace=wrap;html=1;" vertex="1" parent="4">
          <mxGeometry x="87.5" y="447" width="115" height="33" as="geometry" />
        </mxCell>
        <mxCell id="88asuDBjDZvt005CNdE9-118" style="edgeStyle=orthogonalEdgeStyle;rounded=0;orthogonalLoop=1;jettySize=auto;html=1;" edge="1" parent="4" source="88asuDBjDZvt005CNdE9-89" target="88asuDBjDZvt005CNdE9-112">
          <mxGeometry relative="1" as="geometry" />
        </mxCell>
        <mxCell id="88asuDBjDZvt005CNdE9-89" value="Update Case Comments + Content&amp;nbsp;" style="whiteSpace=wrap;html=1;" vertex="1" parent="4">
          <mxGeometry x="85" y="1070" width="120" height="60" as="geometry" />
        </mxCell>
        <mxCell id="88asuDBjDZvt005CNdE9-99" style="edgeStyle=orthogonalEdgeStyle;rounded=0;orthogonalLoop=1;jettySize=auto;html=1;entryX=0.5;entryY=0;entryDx=0;entryDy=0;" edge="1" parent="4" source="88asuDBjDZvt005CNdE9-93" target="88asuDBjDZvt005CNdE9-89">
          <mxGeometry relative="1" as="geometry" />
        </mxCell>
        <mxCell id="88asuDBjDZvt005CNdE9-93" value="Service Management&amp;nbsp;" style="shape=process;whiteSpace=wrap;html=1;backgroundOutline=1;" vertex="1" parent="4">
          <mxGeometry x="85" y="710" width="120" height="60" as="geometry" />
        </mxCell>
        <mxCell id="88asuDBjDZvt005CNdE9-120" value="" style="edgeStyle=orthogonalEdgeStyle;rounded=0;orthogonalLoop=1;jettySize=auto;html=1;" edge="1" parent="4" source="88asuDBjDZvt005CNdE9-112" target="88asuDBjDZvt005CNdE9-119">
          <mxGeometry relative="1" as="geometry" />
        </mxCell>
        <mxCell id="88asuDBjDZvt005CNdE9-112" value="Close Ticket." style="whiteSpace=wrap;html=1;" vertex="1" parent="4">
          <mxGeometry x="84.5" y="1280" width="120" height="60" as="geometry" />
        </mxCell>
        <mxCell id="88asuDBjDZvt005CNdE9-119" value="" style="ellipse;shape=endState;fillColor=#000000;strokeColor=#ff0000" vertex="1" parent="4">
          <mxGeometry x="130" y="1390" width="30" height="32" as="geometry" />
        </mxCell>
        <mxCell id="20" value="" style="endArrow=open;strokeColor=#000000;endFill=1;rounded=0;exitX=1;exitY=0.5;exitDx=0;exitDy=0;entryX=0;entryY=0.5;entryDx=0;entryDy=0;" parent="1" source="10" target="16" edge="1">
          <mxGeometry relative="1" as="geometry" />
        </mxCell>
        <mxCell id="88asuDBjDZvt005CNdE9-41" style="edgeStyle=orthogonalEdgeStyle;rounded=0;orthogonalLoop=1;jettySize=auto;html=1;exitX=1;exitY=0.25;exitDx=0;exitDy=0;entryX=0;entryY=0.25;entryDx=0;entryDy=0;" edge="1" parent="1" source="18" target="33">
          <mxGeometry relative="1" as="geometry" />
        </mxCell>
        <mxCell id="88asuDBjDZvt005CNdE9-42" style="edgeStyle=orthogonalEdgeStyle;rounded=0;orthogonalLoop=1;jettySize=auto;html=1;exitX=0;exitY=0.75;exitDx=0;exitDy=0;entryX=1;entryY=0.75;entryDx=0;entryDy=0;" edge="1" parent="1" source="33" target="18">
          <mxGeometry relative="1" as="geometry" />
        </mxCell>
        <mxCell id="88asuDBjDZvt005CNdE9-66" value="" style="edgeStyle=orthogonalEdgeStyle;rounded=0;orthogonalLoop=1;jettySize=auto;html=1;exitX=1;exitY=0.25;exitDx=0;exitDy=0;entryX=0;entryY=0.25;entryDx=0;entryDy=0;" edge="1" parent="1" source="88asuDBjDZvt005CNdE9-63" target="88asuDBjDZvt005CNdE9-65">
          <mxGeometry relative="1" as="geometry" />
        </mxCell>
        <mxCell id="88asuDBjDZvt005CNdE9-74" style="edgeStyle=orthogonalEdgeStyle;rounded=0;orthogonalLoop=1;jettySize=auto;html=1;exitX=0;exitY=0.75;exitDx=0;exitDy=0;entryX=1;entryY=0.75;entryDx=0;entryDy=0;" edge="1" parent="1" source="88asuDBjDZvt005CNdE9-65" target="88asuDBjDZvt005CNdE9-63">
          <mxGeometry relative="1" as="geometry" />
        </mxCell>
        <mxCell id="88asuDBjDZvt005CNdE9-86" value="" style="edgeStyle=orthogonalEdgeStyle;rounded=0;orthogonalLoop=1;jettySize=auto;html=1;" edge="1" parent="1" source="88asuDBjDZvt005CNdE9-82" target="88asuDBjDZvt005CNdE9-85">
          <mxGeometry relative="1" as="geometry" />
        </mxCell>
        <mxCell id="88asuDBjDZvt005CNdE9-90" value="" style="edgeStyle=orthogonalEdgeStyle;rounded=0;orthogonalLoop=1;jettySize=auto;html=1;exitX=1;exitY=0.25;exitDx=0;exitDy=0;entryX=0;entryY=0.25;entryDx=0;entryDy=0;" edge="1" parent="1" source="88asuDBjDZvt005CNdE9-87" target="88asuDBjDZvt005CNdE9-89">
          <mxGeometry relative="1" as="geometry" />
        </mxCell>
        <mxCell id="88asuDBjDZvt005CNdE9-100" style="edgeStyle=orthogonalEdgeStyle;rounded=0;orthogonalLoop=1;jettySize=auto;html=1;exitX=0;exitY=0.75;exitDx=0;exitDy=0;entryX=1;entryY=0.75;entryDx=0;entryDy=0;" edge="1" parent="1" source="88asuDBjDZvt005CNdE9-89" target="88asuDBjDZvt005CNdE9-87">
          <mxGeometry relative="1" as="geometry" />
        </mxCell>
        <mxCell id="88asuDBjDZvt005CNdE9-110" value="" style="edgeStyle=orthogonalEdgeStyle;rounded=0;orthogonalLoop=1;jettySize=auto;html=1;" edge="1" parent="1" source="88asuDBjDZvt005CNdE9-107" target="88asuDBjDZvt005CNdE9-109">
          <mxGeometry relative="1" as="geometry" />
        </mxCell>
        <mxCell id="88asuDBjDZvt005CNdE9-113" value="" style="edgeStyle=orthogonalEdgeStyle;rounded=0;orthogonalLoop=1;jettySize=auto;html=1;exitX=1;exitY=0.25;exitDx=0;exitDy=0;entryX=0;entryY=0.25;entryDx=0;entryDy=0;" edge="1" parent="1" source="88asuDBjDZvt005CNdE9-109" target="88asuDBjDZvt005CNdE9-112">
          <mxGeometry relative="1" as="geometry" />
        </mxCell>
        <mxCell id="88asuDBjDZvt005CNdE9-115" style="edgeStyle=orthogonalEdgeStyle;rounded=0;orthogonalLoop=1;jettySize=auto;html=1;exitX=0;exitY=0.75;exitDx=0;exitDy=0;entryX=1;entryY=0.75;entryDx=0;entryDy=0;" edge="1" parent="1" source="88asuDBjDZvt005CNdE9-112" target="88asuDBjDZvt005CNdE9-109">
          <mxGeometry relative="1" as="geometry" />
        </mxCell>
        <mxCell id="88asuDBjDZvt005CNdE9-116" value="200 (Acknowledge)" style="text;html=1;align=center;verticalAlign=middle;resizable=0;points=[];autosize=1;strokeColor=none;fillColor=none;fontFamily=Lucida Console;" vertex="1" parent="1">
          <mxGeometry x="665" y="1468" width="150" height="30" as="geometry" />
        </mxCell>
      </root>
    </mxGraphModel>
  </diagram>
</mxfile>
